<mxfile host="65bd71144e">
    <diagram id="PTmt7XeYCcM7ftQLNl2k" name="PÃ¡gina-1">
        <mxGraphModel dx="662" dy="411" grid="1" gridSize="10" guides="1" tooltips="1" connect="1" arrows="1" fold="1" page="1" pageScale="1" pageWidth="827" pageHeight="1169" math="0" shadow="0">
            <root>
                <mxCell id="0"/>
                <mxCell id="1" parent="0"/>
                <mxCell id="3" style="edgeStyle=none;html=1;" edge="1" parent="1" source="2">
                    <mxGeometry relative="1" as="geometry">
                        <mxPoint x="300" y="150" as="targetPoint"/>
                    </mxGeometry>
                </mxCell>
                <mxCell id="2" value="INICIO" style="ellipse;whiteSpace=wrap;html=1;fillColor=#60a917;fontColor=#ffffff;strokeColor=#2D7600;" vertex="1" parent="1">
                    <mxGeometry x="240" y="30" width="120" height="80" as="geometry"/>
                </mxCell>
                <mxCell id="5" style="edgeStyle=none;html=1;" edge="1" parent="1" source="4">
                    <mxGeometry relative="1" as="geometry">
                        <mxPoint x="300" y="270" as="targetPoint"/>
                    </mxGeometry>
                </mxCell>
                <mxCell id="4" value="N" style="shape=parallelogram;perimeter=parallelogramPerimeter;whiteSpace=wrap;html=1;fixedSize=1;fillColor=#a20025;fontColor=#ffffff;strokeColor=#6F0000;" vertex="1" parent="1">
                    <mxGeometry x="240" y="150" width="120" height="60" as="geometry"/>
                </mxCell>
                <mxCell id="7" style="edgeStyle=none;html=1;" edge="1" parent="1" source="6">
                    <mxGeometry relative="1" as="geometry">
                        <mxPoint x="300" y="390" as="targetPoint"/>
                    </mxGeometry>
                </mxCell>
                <mxCell id="6" value="suma = 0&lt;br&gt;i = 1" style="whiteSpace=wrap;html=1;fillColor=#1ba1e2;fontColor=#ffffff;strokeColor=#006EAF;" vertex="1" parent="1">
                    <mxGeometry x="240" y="270" width="120" height="60" as="geometry"/>
                </mxCell>
                <mxCell id="9" style="edgeStyle=none;html=1;" edge="1" parent="1" source="8">
                    <mxGeometry relative="1" as="geometry">
                        <mxPoint x="300" y="530" as="targetPoint"/>
                    </mxGeometry>
                </mxCell>
                <mxCell id="12" style="edgeStyle=none;html=1;" edge="1" parent="1" source="8">
                    <mxGeometry relative="1" as="geometry">
                        <mxPoint x="460" y="520" as="targetPoint"/>
                        <Array as="points">
                            <mxPoint x="460" y="430"/>
                        </Array>
                    </mxGeometry>
                </mxCell>
                <mxCell id="8" value="i &amp;lt;= N&amp;nbsp;" style="rhombus;whiteSpace=wrap;html=1;fillColor=#0050ef;fontColor=#ffffff;strokeColor=#001DBC;" vertex="1" parent="1">
                    <mxGeometry x="260" y="390" width="80" height="80" as="geometry"/>
                </mxCell>
                <mxCell id="11" style="edgeStyle=none;html=1;" edge="1" parent="1" source="10">
                    <mxGeometry relative="1" as="geometry">
                        <mxPoint x="300" y="370" as="targetPoint"/>
                        <Array as="points">
                            <mxPoint x="300" y="790"/>
                            <mxPoint x="140" y="790"/>
                            <mxPoint x="140" y="370"/>
                        </Array>
                    </mxGeometry>
                </mxCell>
                <mxCell id="10" value="suma = suma + i&lt;br&gt;i = i+1" style="whiteSpace=wrap;html=1;fillColor=#d80073;fontColor=#ffffff;strokeColor=#A50040;" vertex="1" parent="1">
                    <mxGeometry x="240" y="530" width="120" height="60" as="geometry"/>
                </mxCell>
                <mxCell id="14" style="edgeStyle=none;html=1;" edge="1" parent="1" source="13">
                    <mxGeometry relative="1" as="geometry">
                        <mxPoint x="460" y="650" as="targetPoint"/>
                    </mxGeometry>
                </mxCell>
                <mxCell id="13" value="suma" style="shape=document;whiteSpace=wrap;html=1;boundedLbl=1;fillColor=#647687;fontColor=#ffffff;strokeColor=#314354;" vertex="1" parent="1">
                    <mxGeometry x="400" y="520" width="120" height="70" as="geometry"/>
                </mxCell>
                <mxCell id="15" value="FIN" style="ellipse;whiteSpace=wrap;html=1;fillColor=#e51400;fontColor=#ffffff;strokeColor=#B20000;" vertex="1" parent="1">
                    <mxGeometry x="400" y="650" width="120" height="80" as="geometry"/>
                </mxCell>
            </root>
        </mxGraphModel>
    </diagram>
</mxfile>
